HIERARCHY
ROOT ROOT
{
	OFFSET 0.000000 56.020000 -5.659234
	CHANNELS 6 Xposition Yposition Zposition Xrotation Yrotation Zrotation 
	JOINT C_spine0001_bind_JNT
	{
		OFFSET 0.000000 1.618999 0.000000
		CHANNELS 3 Xrotation Yrotation Zrotation
		JOINT C_spine0002_bind_JNT
		{
			OFFSET 0.000000 4.942001 0.000001
			CHANNELS 3 Xrotation Yrotation Zrotation
			JOINT C_spine0003_bind_JNT
			{
				OFFSET 0.000000 4.942001 -0.000000
				CHANNELS 3 Xrotation Yrotation Zrotation
				JOINT C_neck0001_bind_JNT
				{
					OFFSET 0.000000 17.026009 -0.000000
					CHANNELS 3 Xrotation Yrotation Zrotation
					JOINT C_neck0002_bind_JNT
					{
						OFFSET 0.000000 3.249985 0.000000
						CHANNELS 3 Xrotation Yrotation Zrotation
						JOINT C_head_bind_JNT
						{
							OFFSET 0.000000 5.278008 0.000000
							CHANNELS 3 Xrotation Yrotation Zrotation
							End Site
							{
								OFFSET 0.000000 0.000000 0.000000
							}
						}
					}
				}
				JOINT L_clavicle_bind_JNT
				{
					OFFSET 4.590000 12.067001 0.834000
					CHANNELS 3 Xrotation Yrotation Zrotation
					JOINT L_armUpper0001_bind_JNT
					{
						OFFSET 7.812635 0.512001 -3.452945
						CHANNELS 3 Xrotation Yrotation Zrotation
						JOINT L_armLower0001_bind_JNT
						{
							OFFSET 15.265892 -6.552116 -0.058157
							CHANNELS 3 Xrotation Yrotation Zrotation
							JOINT L_hand0001_bind_JNT
							{
								OFFSET 14.747667 -6.369995 5.049225
								CHANNELS 3 Xrotation Yrotation Zrotation
								End Site
								{
									OFFSET 0.000000 0.000000 0.000000
								}
							}
						}
					}
				}
				JOINT R_clavicle_bind_JNT
				{
					OFFSET -4.590000 12.067001 0.834000
					CHANNELS 3 Xrotation Yrotation Zrotation
					JOINT R_armUpper0001_bind_JNT
					{
						OFFSET -7.812635 0.512001 -3.452945
						CHANNELS 3 Xrotation Yrotation Zrotation
						JOINT R_armLower0001_bind_JNT
						{
							OFFSET -15.265890 -6.552124 -0.058160
							CHANNELS 3 Xrotation Yrotation Zrotation
							JOINT R_hand0001_bind_JNT
							{
								OFFSET -14.746784 -6.369629 5.048937
								CHANNELS 3 Xrotation Yrotation Zrotation
								End Site
								{
									OFFSET 0.000000 0.000000 0.000000
								}
							}
						}
					}
				}
			}
		}
	}
	JOINT C_pelvis0001_bind_JNT
	{
		OFFSET -0.000000 0.000000 0.000000
		CHANNELS 3 Xrotation Yrotation Zrotation
		JOINT L_legUpper0001_bind_JNT
		{
			OFFSET 6.599999 -6.027000 0.539000
			CHANNELS 3 Xrotation Yrotation Zrotation
			JOINT L_legLower0001_bind_JNT
			{
				OFFSET -0.140713 -19.187443 0.040261
				CHANNELS 3 Xrotation Yrotation Zrotation
				JOINT L_foot0001_bind_JNT
				{
					OFFSET -0.132215 -18.028637 -1.138370
					CHANNELS 3 Xrotation Yrotation Zrotation
					JOINT L_foot0002_bind_JNT
					{
						OFFSET 0.007014 -4.693133 9.886524
						CHANNELS 3 Xrotation Yrotation Zrotation
						End Site
						{
							OFFSET 0.000000 0.000000 0.000000
						}
					}
				}
			}
		}
		JOINT R_legUpper0001_bind_JNT
		{
			OFFSET -6.599999 -6.027000 0.539000
			CHANNELS 3 Xrotation Yrotation Zrotation
			JOINT R_legLower0001_bind_JNT
			{
				OFFSET 0.140710 -19.187164 0.040550
				CHANNELS 3 Xrotation Yrotation Zrotation
				JOINT R_foot0001_bind_JNT
				{
					OFFSET 0.132215 -18.028633 -1.138362
					CHANNELS 3 Xrotation Yrotation Zrotation
					JOINT R_foot0002_bind_JNT
					{
						OFFSET -0.007014 -4.693128 9.886505
						CHANNELS 3 Xrotation Yrotation Zrotation
						End Site
						{
							OFFSET 0.000000 0.000000 0.000000
						}
					}
				}
			}
		}
	}
}
MOTION
Frames: 14
Frame Time: 0.033333
-7.493485 46.928795 40.566563 0.049298 3.156283 -0.021171 -21.263853 5.115757 -4.203850 -8.375094 0.503265 -1.948844 2.286384 0.046795 -1.256860 19.125290 1.502786 -3.951699 -0.163654 -0.178372 -0.600940 1.110938 2.112171 -5.652172 3.128062 -0.457115 6.908255 3.332135 10.663668 -45.231407 14.951982 9.103172 -7.947255 -5.221129 -11.469972 -28.887768 2.928970 -6.759189 2.071898 -20.966000 0.210561 32.794586 5.982341 -6.759518 7.815620 -3.320279 10.937510 30.302713 -16.182426 3.302530 0.432852 8.831302 8.741063 18.885298 46.361324 1.111816 -0.529036 12.201120 -13.362743 -9.515544 -38.630367 -1.743694 1.180972 4.594228 -10.205894 -10.995802 38.176392 -2.830550 1.436120 -21.006956 8.516892 5.067221 -5.764831 1.216648 0.389754 
-7.675136 47.038887 40.893967 0.039792 3.167282 -0.021938 -20.553040 5.843119 -3.882659 -8.422210 0.597795 -2.026153 2.252010 0.164470 -1.066029 19.158018 1.049185 -4.049230 -0.024222 0.009216 -0.573655 1.060087 1.552702 -5.932712 3.269736 -0.904949 6.609897 4.254776 11.917138 -45.271465 15.643932 9.788000 -7.050555 -4.417485 -11.347208 -29.889057 2.709490 -7.014916 2.195782 -21.740162 1.881284 31.741636 5.767037 -2.265749 10.219876 -3.314790 11.001498 30.438114 -15.509584 3.780107 0.733891 6.044410 8.397951 20.256111 48.116947 1.094650 -0.773132 15.104331 -15.028485 -8.935794 -35.519176 -2.032249 2.310814 5.231772 -10.234371 -10.415194 36.827454 -3.166630 1.305978 -21.005018 7.873370 4.840587 -5.733747 0.863635 0.315131 
-7.752577 47.066326 41.058525 0.047349 3.204732 -0.024916 -19.806807 6.669426 -3.746660 -8.427936 0.945504 -1.865832 2.134598 0.104887 -1.194358 19.071213 0.908190 -4.234918 -0.130739 -0.188002 -0.373425 0.811944 0.906184 -6.024946 3.022547 -0.898533 6.662470 4.959963 12.997848 -45.363377 16.353403 10.482035 -6.249498 -4.306362 -11.394677 -30.351440 2.400941 -6.896737 2.379006 -22.193624 3.327116 31.189777 5.029810 0.874538 11.584797 -3.437495 10.992869 30.474014 -14.907176 4.060141 0.905514 3.625345 8.706606 21.229673 48.954842 1.071256 -0.662578 15.561813 -15.727690 -8.943681 -31.917461 -2.188960 2.919182 5.725136 -10.189262 -10.186041 35.232780 -3.392960 1.395877 -20.443207 7.371844 5.067978 -5.927585 1.005255 -0.178185 
-7.865751 47.096218 41.195484 0.040779 2.868293 -0.020496 -19.059412 7.948629 -3.523494 -8.403195 1.260557 -2.012102 2.354045 0.463948 -1.135340 18.799126 0.376133 -4.348134 -0.177744 -0.179858 -0.320987 0.248096 0.246993 -6.297107 2.557738 -1.150393 6.577898 5.330893 14.225166 -45.032249 16.233194 10.587654 -5.479505 -4.273270 -11.013326 -30.651052 2.239704 -7.001431 2.483837 -23.090235 4.542997 30.899927 4.422771 3.500929 12.463071 -3.319201 11.114016 30.276171 -14.425480 4.810919 1.355882 1.087232 8.379890 22.379131 49.573452 0.965033 -0.431548 14.504019 -15.444459 -9.517532 -28.399462 -2.168535 1.948472 6.321056 -10.562201 -9.916983 33.454964 -3.773696 1.156768 -19.809834 6.834060 5.063355 -6.022186 0.858057 -0.248730 
-7.738453 47.159424 41.418545 0.043081 2.818490 -0.012582 -18.420610 9.345418 -3.373525 -8.230334 1.613641 -2.029589 2.261786 0.764311 -1.309720 18.690302 -0.085491 -4.597093 -0.159549 -0.240774 -0.123957 -0.219693 -0.600452 -6.525205 2.250145 -1.194004 6.480339 5.477512 15.464725 -44.989918 16.461134 10.786023 -4.495981 -4.430410 -10.729047 -30.673037 2.086359 -6.955066 2.440048 -23.587999 5.328032 30.858414 3.975263 4.712204 12.401054 -2.911110 11.368257 30.281199 -13.793983 5.461471 1.889546 -1.339874 8.272454 22.956045 49.115673 0.739778 -0.036631 12.040924 -13.905136 -10.390761 -24.926279 -2.043767 0.226140 7.071119 -10.959714 -10.116977 31.372986 -3.988638 0.994252 -19.013824 6.081435 5.505793 -6.129719 0.700647 -0.526854 
-7.444059 47.255569 41.710995 0.043342 2.367883 -0.018671 -17.599499 11.366684 -3.322937 -8.131015 1.934794 -2.205088 2.465084 1.121622 -1.370230 18.564976 -0.582553 -4.623429 -0.130653 -0.338667 -0.123639 -0.676342 -1.646716 -6.654994 1.903334 -1.083071 6.436217 5.466373 16.291962 -45.085991 16.073236 10.612004 -3.506690 -4.819748 -10.493114 -31.008097 2.062681 -6.603006 2.395075 -24.255962 5.592892 31.286589 3.610630 5.248621 11.607082 -2.393133 11.649897 30.413202 -13.177378 6.797238 2.438316 -3.454882 8.036057 23.739738 47.344158 0.618267 0.468405 8.867185 -11.841257 -10.986608 -21.989695 -1.644070 -2.585318 8.170785 -11.851510 -10.465407 29.098249 -4.394844 0.955194 -18.396160 5.487815 5.903672 -6.234649 0.783396 -0.506065 
-6.977225 47.278175 41.997852 0.049373 2.311794 -0.013758 -16.768742 13.060521 -3.561724 -8.000960 2.127537 -2.217729 2.411801 1.494244 -1.585947 18.234699 -1.242290 -4.816603 -0.126767 -0.145600 -0.002939 -1.104222 -2.703612 -6.787512 1.632111 -0.885149 6.124680 4.944364 17.126757 -44.925804 16.138912 10.841443 -2.609615 -5.270643 -10.330337 -31.158184 1.921643 -6.261610 2.062319 -24.543905 5.374258 31.618101 3.589405 4.932489 10.849907 -1.902235 12.076712 30.929317 -12.306917 7.761995 2.847170 -5.345209 8.369463 24.201797 44.136738 0.426533 0.560764 6.567987 -10.173593 -11.399469 -20.688189 -0.940794 -4.267406 8.722859 -12.756040 -10.895844 27.228434 -4.654023 0.715551 -17.837481 4.714065 6.354785 -6.392317 0.621581 -0.435130 
-6.396673 47.204624 42.211102 0.042261 2.064738 -0.007089 -15.616711 14.984912 -3.986084 -8.037932 2.410264 -2.343074 2.354079 1.857706 -1.729830 18.140694 -1.801251 -4.838913 -0.269087 -0.398141 -0.139543 -1.626275 -3.527900 -6.815968 1.429962 -0.550434 6.146991 5.009258 17.238535 -45.207420 15.198975 10.782789 -2.449955 -5.875203 -10.464729 -30.938644 2.036854 -5.848001 1.397921 -24.936800 4.490007 32.709095 3.966861 3.934441 9.285339 -1.533982 12.246161 31.491043 -11.493958 9.066485 2.698434 -7.160837 8.402357 25.083637 40.085232 0.369827 0.560330 5.198455 -9.495638 -11.739213 -19.638853 -0.098876 -5.212451 9.243234 -13.589218 -11.104090 25.659386 -5.002200 0.864843 -17.422346 4.738512 6.599044 -6.460318 0.457722 -0.203241 
-5.621828 47.040379 42.481544 0.042438 1.503931 -0.010945 -14.930292 17.127359 -4.442225 -7.774103 2.544149 -2.338993 2.428971 2.314230 -2.060502 17.658913 -2.301042 -4.844690 -0.206772 -0.176749 0.057661 -2.029920 -4.603719 -7.108944 1.331784 -0.351291 6.579370 5.051559 17.413551 -46.204533 14.092288 10.529060 -1.890082 -6.173604 -10.916433 -30.450335 2.105326 -5.545118 0.584449 -25.336811 3.522832 33.688808 4.541476 2.703498 7.931592 -1.488824 12.650808 32.087597 -10.644234 10.795463 2.370348 -8.657785 8.671066 26.190073 36.042839 -0.360589 0.783521 4.353838 -8.458637 -13.061867 -18.144320 0.008903 -5.205305 9.153858 -14.642306 -11.370340 24.703608 -5.099030 0.680619 -17.344021 4.229354 7.152411 -6.414567 0.472163 0.188659 
-4.738512 46.870045 42.710114 0.040339 0.356705 -0.011980 -13.986662 19.900999 -5.031929 -7.714161 2.774648 -2.345119 2.316880 2.701725 -2.146673 17.629128 -2.934864 -4.748545 -0.198628 -0.512685 -0.010895 -2.555028 -5.459185 -6.805526 1.441194 0.172485 6.889647 4.958448 16.831390 -46.959045 12.799220 9.999152 -1.672272 -6.607374 -11.343165 -30.225149 2.208549 -5.202039 -0.520435 -25.436113 2.049932 34.553989 5.493055 1.480711 6.894963 -1.396325 12.736642 32.442848 -9.775865 13.029697 1.663822 -10.107592 8.871459 27.247753 33.187664 -0.784942 0.643893 2.910998 -7.964651 -14.448168 -15.584860 -0.160076 -4.636679 9.191928 -15.518925 -11.333536 23.897818 -5.135367 0.911423 -16.940359 4.055216 7.853446 -6.604079 0.428241 0.067988 
-3.883807 46.724636 42.918930 0.037368 -0.653704 -0.011859 -13.234818 22.415909 -5.444622 -7.469042 2.872235 -2.514370 2.431746 3.060973 -2.507923 17.224390 -3.428717 -4.586854 -0.236317 -0.340357 0.175462 -3.094860 -6.543417 -6.760102 1.408063 0.573954 7.060513 4.448290 16.174187 -47.298321 12.051888 9.623450 -1.712674 -7.059604 -11.646659 -29.956427 2.126261 -4.925625 -1.043232 -25.377960 0.941819 34.942299 5.884343 0.701076 6.423075 -1.464364 13.218051 32.882328 -8.955746 15.209036 1.194897 -11.558503 8.703885 28.101864 32.145073 -1.289318 0.566341 1.417682 -6.938005 -15.815598 -13.299294 -0.699781 -4.036534 8.750247 -16.290714 -11.539055 23.474169 -5.361359 0.847526 -16.608103 3.929748 8.525859 -6.623932 0.390868 0.238347 
-2.987114 46.591263 43.069130 0.040791 -1.893238 -0.011160 -12.104675 24.829937 -6.129774 -7.331744 3.070883 -2.701585 2.241528 3.322132 -2.639811 17.165932 -3.859241 -4.186594 -0.247246 -0.247293 0.180901 -3.876074 -7.407888 -6.327733 1.709924 1.129687 7.211063 3.701080 14.796506 -47.745617 11.023147 9.319856 -1.971512 -7.414533 -12.240304 -29.586206 2.355577 -4.898766 -1.321975 -25.746552 0.043740 35.392353 6.695150 -0.036491 6.287475 -1.562588 13.398343 33.142170 -7.923339 17.306511 0.549130 -12.619470 8.800844 28.074989 31.829172 -1.609716 0.486402 -1.083611 -5.938607 -15.871156 -11.076252 -0.544353 -3.548554 8.184479 -17.041082 -11.697268 23.233210 -5.513738 0.743756 -16.440538 4.068627 9.238953 -6.738164 0.328725 0.449195 
-2.203470 46.522694 43.069550 0.035680 -2.672119 -0.004179 -11.122794 26.581558 -6.841634 -7.195953 3.143056 -2.736662 2.532284 3.502625 -2.799701 16.785784 -3.983183 -3.901921 -0.265220 -0.378498 0.181471 -4.463282 -7.871332 -5.952886 1.699365 1.434117 6.910814 3.220031 13.907907 -47.501995 10.462791 8.332863 -2.208081 -7.949410 -12.594569 -29.892834 2.318470 -4.758516 -1.262747 -25.883425 -0.319771 35.489441 7.091943 -0.419946 6.224604 -1.893538 13.386746 33.644791 -6.809579 18.763557 -0.109030 -14.259915 8.571828 28.072401 33.074833 -2.330428 0.516820 -3.628931 -4.414458 -15.540854 -9.158710 -0.595702 -3.555895 7.217582 -17.424381 -11.958740 22.977289 -5.502890 0.437705 -16.137712 4.297478 9.858423 -6.703016 0.441168 0.788941 
-1.432987 46.424007 43.103165 0.040193 -3.263272 -0.013454 -9.809052 27.662128 -7.916152 -7.131647 3.396797 -2.775769 2.480127 3.756340 -3.062707 16.550539 -4.140145 -3.410199 -0.277927 -0.358229 0.330386 -4.924765 -8.264969 -5.385374 1.910036 1.521935 6.879240 1.887559 12.842053 -47.070152 10.277140 8.095522 -2.757065 -8.258931 -13.194144 -29.668528 2.644336 -4.630395 -1.106311 -26.338640 -0.811706 35.804379 7.522206 -0.917631 6.379850 -2.241185 13.189042 34.241428 -5.700373 19.685316 -0.929435 -15.779012 8.394332 27.794886 34.483326 -2.512494 0.563224 -6.136689 -3.574276 -14.966327 -7.474778 -0.469695 -2.952607 6.727261 -18.050211 -12.116996 22.217260 -5.437125 0.100935 -15.806432 4.952275 10.650077 -6.711163 0.433342 0.870355 
